# xmcd
#
# Track frame offsets:
#	150
#	10035
#	23420
#	33907
#	47430
#	58520
#	72610
#	85175
#	98162
#	110952
#	124880
#	135292
#	146672
#	158532
#
# Disc length: 2266 seconds
#
# Revision: 0
# Processed by: cddbd v1.5.1PL0 Copyright (c) Steve Scherf et al.
# Submitted via: audiograbber 1.83.01
#
DISCID=af08d80e
DTITLE=Hank Thompson - The Hank Thompson country collection
DYEAR=1900
DGENRE=Country
TTITLE0=A six pack to go
TTITLE1=The wild side of life
TTITLE2=Bubbles in my beer
TTITLE3=John Henry
TTITLE4=Swing wide your gate of love
TTITLE5=San Antonio Rose
TTITLE6=Most of all
TTITLE7=Rovin' gambler
TTITLE8=Nine pound hammer
TTITLE9=Cocaine blues
TTITLE10=Lost John
TTITLE11=Total stranger
TTITLE12=Wabash cannonball
TTITLE13=Shotgun boogie
EXTD=
EXTT0=
EXTT1=
EXTT2=
EXTT3=
EXTT4=
EXTT5=
EXTT6=
EXTT7=
EXTT8=
EXTT9=
EXTT10=
EXTT11=
EXTT12=
EXTT13=
PLAYORDER=
